<?xml version="1.0" standalone="no"?>
<!DOCTYPE svg PUBLIC "-//W3C//DTD SVG 20010904//EN"
 "http://www.w3.org/TR/2001/REC-SVG-20010904/DTD/svg10.dtd">
<svg version="1.0" xmlns="http://www.w3.org/2000/svg"
 width="300.000000pt" height="300.000000pt" viewBox="0 0 300.000000 300.000000"
 preserveAspectRatio="xMidYMid meet">
<metadata>
Created by potrace 1.10, written by Peter Selinger 2001-2011
</metadata>
<g transform="translate(0.000000,300.000000) scale(0.100000,-0.100000)"
fill="#000000" stroke="none">
<path d="M42 2428 c43 -99 58 -118 94 -118 20 0 23 -6 26 -42 3 -41 4 -43 43
-50 22 -3 94 -11 160 -17 237 -22 225 -20 225 -47 0 -19 5 -24 25 -24 24 0 25
-3 25 -58 l0 -57 -46 3 c-42 4 -45 2 -42 -18 3 -22 3 -22 -179 -20 l-183 1 0
-86 0 -85 220 0 220 0 0 -62 c0 -35 -7 -261 -15 -503 -8 -242 -15 -470 -15
-507 0 -51 -3 -68 -14 -68 -25 0 -65 -41 -77 -78 l-11 -37 -139 3 -139 4 0
-41 0 -41 530 0 530 0 0 41 0 41 -134 -4 -135 -3 -6 31 c-5 31 -33 63 -71 82
-19 10 -20 23 -32 449 -7 241 -16 495 -19 566 l-6 127 623 0 623 0 -6 -132
c-4 -73 -12 -328 -19 -566 -11 -421 -12 -434 -32 -444 -38 -19 -66 -51 -71
-82 l-6 -31 -135 3 -134 4 0 -41 0 -41 530 0 530 0 0 41 0 41 -139 -4 -139 -3
-11 37 c-12 37 -52 78 -77 78 -11 0 -14 19 -14 78 0 42 -7 268 -15 502 -8 234
-15 455 -15 493 l0 67 220 0 220 0 0 85 0 86 -180 -3 -180 -3 0 24 c0 22 -3
23 -45 19 l-45 -6 0 59 c0 56 1 59 25 59 20 0 25 5 25 24 0 22 5 25 53 30 186
17 362 38 369 42 4 3 8 23 8 45 0 34 3 39 23 39 37 0 52 19 96 118 32 74 37
92 23 88 -459 -142 -2038 -168 -2752 -46 -63 11 -140 27 -170 35 -30 8 -56 15
-57 15 -1 0 16 -42 39 -92z m162 12 c305 -53 726 -79 1301 -79 609 -1 1111 34
1365 93 35 8 66 14 68 12 2 -2 -7 -28 -19 -56 -17 -39 -31 -56 -54 -66 -38
-16 -52 -31 -57 -64 -3 -23 -10 -26 -75 -37 -39 -6 -129 -16 -199 -21 -107 -7
-130 -12 -138 -27 -6 -10 -23 -29 -38 -43 -24 -21 -28 -33 -28 -76 0 -63 20
-96 59 -96 15 0 36 -9 46 -20 17 -18 31 -20 177 -20 l158 0 0 -50 0 -50 -198
0 c-184 0 -200 -1 -217 -19 -16 -19 -16 -45 -1 -568 9 -301 19 -558 22 -570 2
-13 22 -34 43 -47 24 -15 41 -35 46 -53 14 -59 27 -64 157 -62 66 0 122 -2
125 -5 4 -3 -221 -5 -498 -4 -277 1 -448 5 -379 8 l125 5 25 49 c14 29 38 57
55 66 22 12 31 26 36 56 4 21 12 221 19 444 6 223 14 463 16 534 4 111 2 131
-12 147 -16 18 -44 19 -635 19 l-619 0 -15 -23 c-14 -22 -14 -70 0 -478 8
-250 15 -493 16 -542 3 -122 6 -136 46 -159 21 -13 42 -38 56 -67 l22 -46 120
-5 c66 -4 -105 -7 -379 -8 -275 -1 -497 0 -494 3 2 3 58 5 124 6 125 1 154 10
154 49 0 16 12 31 73 84 25 24 27 30 27 113 1 48 3 131 5 183 3 52 10 265 16
473 10 355 10 380 -7 398 -16 18 -32 19 -221 19 l-203 0 0 50 0 50 161 0 c156
0 162 1 190 24 17 14 36 22 48 19 29 -7 51 33 51 93 0 43 -4 56 -23 71 -13 10
-29 28 -36 40 -13 25 -22 27 -211 43 -206 17 -210 18 -210 50 0 29 -19 49 -62
68 -17 7 -34 28 -47 58 -25 56 -26 68 -5 60 9 -3 66 -15 128 -26z"/>
<path d="M887 2168 c-35 -31 -37 -36 -37 -94 0 -66 17 -94 57 -94 11 0 28 -9
38 -20 17 -19 31 -20 230 -20 257 0 245 -6 245 126 0 57 -5 96 -12 106 -11 14
-50 17 -248 22 l-235 6 -38 -32z m381 -8 l122 0 0 -92 0 -93 -215 0 -215 0 0
23 c0 21 -4 23 -42 20 l-43 -3 -3 58 c-3 55 -2 57 23 57 19 0 25 5 25 22 0 21
2 21 113 15 61 -4 167 -7 235 -7z"/>
<path d="M1732 2191 c-103 -5 -135 -9 -142 -21 -5 -8 -10 -56 -10 -106 0 -130
-12 -124 247 -124 197 0 211 1 228 20 10 11 28 20 41 20 39 0 54 25 54 94 0
61 -1 64 -39 94 -39 32 -41 32 -143 30 -57 -1 -163 -4 -236 -7z m348 -41 c0
-15 7 -20 25 -20 25 0 26 -2 23 -57 l-3 -58 -42 3 c-39 3 -43 1 -43 -20 l0
-23 -215 0 -215 0 0 92 0 93 163 3 c89 1 195 4 235 5 66 2 72 0 72 -18z"/>
</g>
</svg>
